Coordinates
version=1
nRows=11
nColumns=32
inDegrees=yes

Units are S.I. units (second, meters, Newtons, ...)
If the header above contains a line with 'inDegrees', this indicates whether rotational values are in degrees (yes) or radians (no).

endheader
time	pelvis_tilt	pelvis_list	pelvis_rotation	pelvis_tx	pelvis_ty	pelvis_tz	hip_flexion_r	hip_adduction_r	hip_rotation_r	knee_angle_r	knee_adduction_r	med_cond_adduction_r	lat_cond_adduction_r	patella_r_constrained_knee_angle	ankle_angle_r	subtalar_angle_r	mtp_angle_r	hip_flexion_l	hip_adduction_l	hip_rotation_l	knee_angle_l	knee_adduction_l	med_cond_adduction_l	lat_cond_adduction_l	patella_l_constrained_knee_angle	ankle_angle_l	subtalar_angle_l	mtp_angle_l	lumbar_extension	lumbar_bending	lumbar_rotation
      0.00500000	      2.98627657	      3.66174352	     -0.32115700	      0.26873296	      0.91892703	     -1.21470348	     -4.48663502	    -23.95335290	    -35.62570022	     -6.73347237	      3.06492111	     -0.00000000	     -0.00000000	     -0.11752126	     -7.04088792	      7.54971701	     -0.00000000	     -2.84715410	    -13.33635391	    -38.56328927	     -4.40651466	     -1.26725396	      0.00000000	      0.00000000	     -0.07690819	     -8.28430785	     17.13348368	      0.00000000	     -5.17145500	     -1.62129258	     -0.62142521
      0.01000000	      2.93283988	      3.88222355	     -0.30884133	      0.26869076	      0.91878718	     -1.21482464	     -4.34815340	    -24.34874144	    -35.75253552	     -7.04532177	      3.16408521	      0.00000000	      0.00000000	     -0.12296406	     -6.85267358	      7.77805726	      0.00000000	     -2.76996661	    -13.02028239	    -38.53805853	     -4.32673741	     -1.37761995	      0.00000000	      0.00000000	     -0.07551581	     -8.36418735	     17.12494046	      0.00000000	     -5.12011017	     -1.85709427	     -0.59791736
      0.01500000	      2.93960140	      3.69482755	     -0.33139782	      0.26862651	      0.91884945	     -1.21472358	     -4.36166044	    -24.04269047	    -35.60700428	     -6.86967611	      3.08493860	     -0.00000000	     -0.00000000	     -0.11989847	     -7.01063574	      7.55460564	     -0.00000000	     -2.78207451	    -13.28956839	    -38.56721327	     -4.41086855	     -1.29559702	      0.00000000	      0.00000000	     -0.07698418	     -8.30006221	     17.11604365	     -0.00000000	     -5.15607128	     -1.58805212	     -0.51153646
      0.02000000	      2.92790216	      3.68440447	     -0.35414437	      0.26851801	      0.91884519	     -1.21465424	     -4.29419650	    -24.02305215	    -35.53084099	     -6.89600777	      3.04990858	      0.00000000	      0.00000000	     -0.12035804	     -7.05013473	      7.51848397	     -0.00000000	     -2.76526573	    -13.31712941	    -38.57833559	     -4.43572714	     -1.27924834	      0.00000000	     -0.00000000	     -0.07741804	     -8.32997426	     17.11667457	      0.00000000	     -5.17889177	     -1.61376166	     -0.53568891
      0.02500000	      2.89226595	      3.73417147	     -0.29864631	      0.26844316	      0.91877670	     -1.21483402	     -4.24486689	    -24.14317862	    -35.59883919	     -7.02063049	      3.11585388	     -0.00000000	     -0.00000000	     -0.12253312	     -6.99025131	      7.50334443	      0.00000000	     -2.67085243	    -13.24606208	    -38.54757985	     -4.46725434	     -1.33810063	      0.00000000	      0.00000000	     -0.07796830	     -8.27078702	     17.15926822	      0.00000000	     -5.15430821	     -1.69564834	     -0.66162034
      0.03000000	      2.86928026	      3.71569548	     -0.31667689	      0.26831782	      0.91875010	     -1.21478965	     -4.15527798	    -24.12935631	    -35.53126095	     -7.08425650	      3.09195901	      0.00000000	      0.00000000	     -0.12364360	     -6.98761597	      7.46431890	     -0.00000000	     -2.62937920	    -13.28038410	    -38.56177623	     -4.50639526	     -1.33865725	      0.00000000	      0.00000000	     -0.07865143	     -8.27221407	     17.16984863	     -0.00000000	     -5.16310970	     -1.69385011	     -0.67641743
      0.03500000	      2.74263668	      3.94205598	     -0.38383275	      0.26835354	      0.91840390	     -1.21475142	     -3.69438225	    -24.71011488	    -35.91357420	     -7.92865075	      3.17343188	     -0.00000000	     -0.00000000	     -0.13838106	     -6.42112306	      8.43268682	     -0.00000000	     -2.61872077	    -12.88134278	    -38.44822208	     -4.13689785	     -1.40220422	     -0.00000000	     -0.00000000	     -0.07220249	     -8.49795505	     16.82707346	      0.00000000	     -4.99825041	     -1.89101485	     -0.48656173
      0.04000000	      2.78559364	      3.79919153	     -0.29700627	      0.26806253	      0.91861231	     -1.21491111	     -3.94757150	    -24.31223413	    -35.48173454	     -7.33014070	      3.13383211	      0.00000000	      0.00000000	     -0.12793509	     -6.91910399	      7.40189745	     -0.00000000	     -2.46535236	    -13.17517262	    -38.55256067	     -4.56455064	     -1.41232383	      0.00000000	      0.00000000	     -0.07966644	     -8.24157299	     17.20434437	     -0.00000000	     -5.14890660	     -1.75866054	     -0.66313830
      0.04500000	      2.73838797	      3.78163393	     -0.27356419	      0.26792180	      0.91855226	     -1.21495865	     -3.85472929	    -24.31063155	    -35.45788963	     -7.39235230	      3.13883347	     -0.00000000	     -0.00000000	     -0.12902089	     -6.93409554	      7.33343431	      0.00000000	     -2.36964184	    -13.21046630	    -38.54099023	     -4.62571190	     -1.42758103	     -0.00000000	     -0.00000000	     -0.08073390	     -8.21983111	     17.24280915	      0.00000000	     -5.12861094	     -1.76301939	     -0.72834264
      0.05000000	      2.58672156	      4.22762381	     -0.35108647	      0.26787093	      0.91814550	     -1.21491485	     -3.33472908	    -25.19651652	    -35.79218639	     -8.33558578	      3.27854409	     -0.00000000	     -0.00000000	     -0.14548342	     -6.34158287	      8.28904932	     -0.00000000	     -2.29135943	    -12.54224287	    -38.45616365	     -4.27831333	     -1.56766382	      0.00000000	      0.00000000	     -0.07467065	     -8.48654984	     16.98413235	     -0.00000000	     -4.95197439	     -2.15748709	     -0.37761781
      0.05500000	      2.62957936	      3.85461151	     -0.34755549	      0.26756588	      0.91835566	     -1.21487061	     -3.47507926	    -24.51292653	    -35.35851514	     -7.79497373	      3.12249953	      0.00000000	      0.00000000	     -0.13604796	     -6.79901358	      7.42977972	     -0.00000000	     -2.21429629	    -13.11813156	    -38.57447116	     -4.66509012	     -1.48168995	     -0.00000000	     -0.00000000	     -0.08142118	     -8.21405591	     17.22012559	     -0.00000000	     -5.10220924	     -1.80343396	     -0.58150995
